<svg width="1200" height="1200" viewBox="0 0 1200 1200" fill="none" xmlns="http://www.w3.org/2000/svg">
<rect x="114.948" y="25.9958" width="1050" height="844.098" rx="20" transform="rotate(5.62799 114.948 25.9958)" fill="url(#paint0_linear_1_22)"/>
<rect x="143.445" y="52.9202" width="998" height="794" rx="20" transform="rotate(5.62799 143.445 52.9202)" fill="black"/>
<rect x="155.712" y="66.7442" width="961.233" height="770.066" rx="10" transform="rotate(5.62799 155.712 66.7442)" fill="#222222"/>
<path d="M154.731 76.696C155.273 71.1998 160.167 67.1833 165.664 67.7249L1102.36 160.031C1107.86 160.572 1111.87 165.467 1111.33 170.963L1108.28 201.884L151.684 107.616L154.731 76.696Z" fill="#D9D9D9"/>
<path d="M821.304 173.603L1108.28 201.884L1040.22 892.534C1038.33 911.771 1021.2 925.829 1001.96 923.933L749.812 899.085L821.304 173.603Z" fill="#292929"/>
<path d="M211.472 113.508L151.684 107.616L81.173 823.146C80.6314 828.643 84.6479 833.537 90.1441 834.079L139.98 838.99L211.472 113.508Z" fill="#313131"/>
<path d="M157.471 205.995C168.299 194.736 179.236 186.326 183.351 183.529L186.209 190.924C172.118 200.639 146.642 217.255 157.471 205.995Z" stroke="url(#paint1_linear_1_22)" stroke-width="7"/>
<path d="M157.471 205.995C168.299 194.736 179.236 186.326 183.351 183.529L186.209 190.924C172.118 200.639 146.642 217.255 157.471 205.995Z" stroke="url(#paint2_linear_1_22)" stroke-width="7"/>
<path d="M186.222 234.965C173.515 221.785 157.81 227.195 151.545 231.548L155.838 262.785L174.089 264.584L186.222 234.965Z" stroke="white" stroke-width="7"/>
<path d="M161.748 161.254C173.968 165.897 195.475 173.089 183.744 164.711C169.08 154.238 151.868 151.253 170.37 147.272C188.873 143.292 205.771 173.975 190.226 147.939C174.681 121.904 151.773 146.085 170.087 131.769C188.401 117.453 183.744 152.459 196.897 141.504" stroke="url(#paint3_linear_1_22)" stroke-width="5"/>
<path d="M811.172 460.199L1056.3 484.355L1014.51 908.404L769.384 884.248L811.172 460.199Z" fill="#484444"/>
<path d="M806.641 506.18L1051.77 530.336L1046.36 585.258L801.228 561.103L806.641 506.18Z" fill="#797979"/>
<path d="M811.172 460.199L1056.3 484.355L1053.41 513.732L808.277 489.576L811.172 460.199Z" fill="#5B5B5B"/>
<path d="M799.844 575.152L1044.97 599.308L1039.56 654.23L794.432 630.074L799.844 575.152Z" fill="#797979"/>
<path d="M793.047 644.124L1038.18 668.28L1032.76 723.202L787.635 699.046L793.047 644.124Z" fill="#797979"/>
<path d="M786.25 713.096L1031.38 737.252L1025.97 792.174L780.838 768.018L786.25 713.096Z" fill="#797979"/>
<path d="M779.453 782.068L1024.58 806.224L1019.17 861.146L774.041 836.99L779.453 782.068Z" fill="#797979"/>
<path d="M772.657 851.04L1017.79 875.196L1014.51 908.404L769.384 884.248L772.657 851.04Z" fill="#797979"/>
<rect x="301.279" y="292.593" width="384.493" height="390.167" rx="38" transform="rotate(5.62799 301.279 292.593)" fill="url(#paint4_linear_1_22)"/>
<rect x="309.832" y="297.9" width="367.212" height="372.631" rx="38" transform="rotate(5.62799 309.832 297.9)" fill="#111111"/>
<path d="M899.437 550.791C902.248 546.769 918.21 537.939 959.571 534.792C940.376 545.797 913.075 565.547 957.431 556.506C1001.79 547.464 1023.97 542.858 1029.52 541.686C1007.55 550.267 971.874 565.538 1004.98 557.967C1038.08 550.396 1030.33 555.951 1022.32 559.676" stroke="white" stroke-width="5"/>
<path d="M941.739 605.75L941.785 608.801L944.767 608.156C947.198 607.63 950.074 607.215 953.498 606.954L958.024 606.61L955.314 602.969C953.502 600.534 951.875 598.759 950.392 597.665C948.995 596.635 947.062 595.747 945.092 596.609C943.263 597.41 942.529 599.269 942.195 600.61C941.824 602.1 941.71 603.896 941.739 605.75Z" stroke="white" stroke-width="5"/>
<path d="M967.573 685.889L970.905 689.528C975.609 686.454 979.958 683.395 982.853 681.358C983.303 681.042 983.717 680.75 984.093 680.487C984.399 680.36 984.71 680.235 985.025 680.112L985.434 679.953L985.764 679.663C986.201 679.279 986.567 678.949 986.795 678.713C986.855 678.651 986.947 678.553 987.039 678.437C987.084 678.38 987.161 678.279 987.241 678.148L987.242 678.147C987.292 678.063 987.488 677.74 987.572 677.277C987.618 677.026 987.659 676.578 987.491 676.058C987.303 675.474 986.91 674.985 986.393 674.676C985.583 674.191 984.8 674.332 984.67 674.356L984.661 674.357C984.279 674.424 983.983 674.572 983.927 674.6L983.921 674.603C983.613 674.755 983.209 675.023 982.89 675.238C982.558 675.462 982.144 675.749 981.665 676.083C975.313 678.784 970.402 682.296 967.573 685.889ZM983.2 675.238C983.199 675.239 983.199 675.239 983.199 675.239C983.203 675.234 983.204 675.234 983.2 675.238Z" stroke="white" stroke-width="5"/>
<path d="M944.805 755.059L943.28 754.532L942.172 755.703C939.805 758.206 937.506 761.067 935.338 764.324C934.015 766.311 933.127 768.045 932.846 769.502C932.703 770.243 932.659 771.201 933.092 772.129C933.578 773.172 934.467 773.763 935.364 773.997C936.168 774.207 936.959 774.135 937.577 774.012C938.225 773.883 938.88 773.657 939.506 773.387C940.758 772.847 942.101 772.039 943.368 771.096C945.813 769.278 948.486 766.575 949.524 763.686C950.068 762.171 950.246 760.347 949.361 758.607C948.488 756.89 946.835 755.76 944.805 755.059Z" stroke="white" stroke-width="5"/>
<path d="M939.855 820.845C940.509 822.194 941.366 823.687 942.46 825.335C942.279 825.426 942.114 825.512 941.973 825.59C941.869 825.648 941.744 825.719 941.623 825.797C941.564 825.836 941.477 825.895 941.381 825.971C941.319 826.02 941.102 826.191 940.897 826.465C940.798 826.597 940.582 826.908 940.467 827.366C940.335 827.894 940.335 828.676 940.835 829.402C941.276 830.04 941.866 830.281 942.144 830.37C942.444 830.465 942.695 830.483 942.821 830.488C943.213 830.503 943.554 830.418 943.624 830.401C943.628 830.4 943.631 830.399 943.633 830.399C943.883 830.339 944.185 830.241 944.483 830.139C945.116 829.921 946.08 829.561 947.409 829.042L950.475 827.844L948.499 825.212C948.408 825.091 948.318 824.971 948.23 824.851C946.834 822.964 945.783 821.325 945.006 819.918C946.249 817.86 946.758 815.886 946.579 814.12C946.368 812.044 945.105 810.093 943.017 809.604C941.95 809.354 940.786 809.551 939.832 810.277C938.903 810.984 938.393 812.016 938.181 813.069C937.772 815.104 938.341 817.727 939.855 820.845ZM941.533 814.309C941.516 814.291 941.511 814.279 941.512 814.277C941.513 814.276 941.522 814.285 941.533 814.309Z" stroke="white" stroke-width="5"/>
<path d="M876.048 892.282C894.299 890.856 874.973 878.684 898.717 888.901C946.399 882.865 914.45 879.809 923.878 896.995C926.436 901.66 957.054 866.632 947.743 893.732C957.211 901.796 954.379 863.144 960.106 890.791C961.896 899.432 992.277 899.222 984.263 902.946" stroke="white" stroke-width="5"/>
<rect x="813.312" y="511.996" width="42.0539" height="44.9205" transform="rotate(5.62799 813.312 511.996)" fill="white"/>
<path d="M813.999 550.524C826.218 555.167 847.725 562.359 835.994 553.981C821.33 543.508 804.118 540.522 822.62 536.542C841.123 532.562 858.021 563.245 842.476 537.209C826.931 511.174 804.023 535.354 822.337 521.038C840.651 506.722 835.994 541.729 849.147 530.773" stroke="url(#paint5_linear_1_22)"/>
<rect x="806.515" y="580.968" width="42.0539" height="44.9205" transform="rotate(5.62799 806.515 580.968)" fill="white"/>
<rect x="799.718" y="649.94" width="42.0539" height="44.9205" transform="rotate(5.62799 799.718 649.94)" fill="white"/>
<path d="M800.405 688.467C812.625 693.111 834.131 700.303 822.4 691.924C807.737 681.452 790.524 678.466 809.027 674.486C827.53 670.506 844.427 701.188 828.883 675.153C813.338 649.117 790.43 673.298 808.744 658.982C827.058 644.666 822.4 679.673 835.554 668.717" stroke="url(#paint6_linear_1_22)"/>
<rect x="792.921" y="718.912" width="42.0539" height="44.9205" transform="rotate(5.62799 792.921 718.912)" fill="white"/>
<path d="M793.608 757.439C805.828 762.082 827.335 769.274 815.604 760.896C800.94 750.424 783.728 747.438 802.23 743.458C820.733 739.478 837.631 770.16 822.086 744.125C806.541 718.089 783.633 742.27 801.947 727.954C820.261 713.638 815.604 748.645 828.757 737.689" stroke="url(#paint7_linear_1_22)"/>
<rect x="786.125" y="787.884" width="42.0539" height="44.9205" transform="rotate(5.62799 786.125 787.884)" fill="white"/>
<path d="M786.811 826.411C799.031 831.055 820.538 838.247 808.807 829.868C794.143 819.396 776.707 810.585 795.433 812.43C804.146 813.288 834.585 836.076 815.289 813.097C784.803 776.792 797.708 819.977 816.022 805.661M816.022 805.661C834.336 791.345 802.869 816.617 816.022 805.661Z" stroke="url(#paint8_linear_1_22)"/>
<rect x="779.328" y="856.856" width="42.0539" height="28.2358" transform="rotate(5.62799 779.328 856.856)" fill="white"/>
<path d="M790.908 886.369C791.6 879.344 822.4 877.995 810.669 869.617C796.005 859.144 768.633 882.24 787.135 878.26C805.638 874.28 822.375 897.853 808.492 882.068C788.706 859.57 770.04 880.214 788.354 865.898C806.667 851.582 802.01 886.588 815.164 875.633" stroke="url(#paint9_linear_1_22)"/>
<path d="M818.606 602.794C816.238 601.228 814.645 599.596 813.847 598.456C813.794 592.863 822.028 588.945 826.213 589.358C826.213 589.358 835.622 585.771 833.482 607.485C832.854 613.856 830.197 607.189 828.711 606.889M818.606 602.794C806.483 611.917 806.546 611.278 809.032 616.682C811.424 621.002 818.032 628.273 825.332 622.802C832.633 617.331 830.627 609.914 828.711 606.889M818.606 602.794C821.114 604.454 824.49 606.04 828.711 606.889" stroke="url(#paint10_linear_1_22)"/>
<mask id="path-38-inside-1_1_22" fill="white">
<path fill-rule="evenodd" clip-rule="evenodd" d="M184.309 73.9034L198.282 75.2803L196.799 90.3279L193.588 90.0115C192.86 87.4125 191.289 84.854 188.568 82.6902C187.36 84.0714 185.334 84.8951 183.231 84.8385L183.61 80.9924C187.148 80.5375 189.387 78.8199 188.994 75.4503C186.999 75.2537 185.404 75.3789 184.131 75.7073L184.309 73.9034ZM181.865 76.6796C182.475 76.2806 183.221 75.942 184.131 75.7073L183.61 80.9924C182.928 81.0802 182.197 81.1209 181.427 81.1175L181.865 76.6796ZM171.066 87.7921L166.704 87.3622L168.186 72.3146L182.159 73.6915L181.865 76.6796C179.879 77.9777 179.329 79.9154 179.222 80.999C179.985 81.0741 180.722 81.1144 181.427 81.1175L181.098 84.4653C179.692 83.9963 178.367 83.07 177.356 81.5853C175.21 82.7564 172.688 84.9821 171.066 87.7921ZM170.087 89.8662C170.353 89.1466 170.684 88.4532 171.066 87.7921L180.676 88.7392L181.098 84.4653C181.798 84.6991 182.519 84.8193 183.231 84.8385L182.826 88.951L193.588 90.0115C193.794 90.7483 193.933 91.4884 194.01 92.2237L182.614 91.1007L181.459 102.822C180.729 102.762 179.986 102.86 179.26 103.113L180.465 90.8888L170.087 89.8662ZM170.087 89.8662C168.567 93.9882 169.225 98.9705 175.181 103.662C175.457 103.551 175.942 103.624 176.45 103.701C177.065 103.795 177.715 103.893 178.073 103.676C178.459 103.442 178.857 103.254 179.26 103.113L178.982 105.936L165.009 104.56L166.492 89.5119L170.087 89.8662ZM181.459 102.822C182.743 102.927 183.987 103.523 185.026 104.632C185.24 104.861 185.668 104.826 186.153 104.787C186.614 104.749 187.126 104.708 187.558 104.882C191.223 103.923 194.647 98.2344 194.01 92.2237L196.587 92.4776L195.104 107.525L181.131 106.148L181.459 102.822Z"/>
</mask>
<path fill-rule="evenodd" clip-rule="evenodd" d="M184.309 73.9034L198.282 75.2803L196.799 90.3279L193.588 90.0115C192.86 87.4125 191.289 84.854 188.568 82.6902C187.36 84.0714 185.334 84.8951 183.231 84.8385L183.61 80.9924C187.148 80.5375 189.387 78.8199 188.994 75.4503C186.999 75.2537 185.404 75.3789 184.131 75.7073L184.309 73.9034ZM181.865 76.6796C182.475 76.2806 183.221 75.942 184.131 75.7073L183.61 80.9924C182.928 81.0802 182.197 81.1209 181.427 81.1175L181.865 76.6796ZM171.066 87.7921L166.704 87.3622L168.186 72.3146L182.159 73.6915L181.865 76.6796C179.879 77.9777 179.329 79.9154 179.222 80.999C179.985 81.0741 180.722 81.1144 181.427 81.1175L181.098 84.4653C179.692 83.9963 178.367 83.07 177.356 81.5853C175.21 82.7564 172.688 84.9821 171.066 87.7921ZM170.087 89.8662C170.353 89.1466 170.684 88.4532 171.066 87.7921L180.676 88.7392L181.098 84.4653C181.798 84.6991 182.519 84.8193 183.231 84.8385L182.826 88.951L193.588 90.0115C193.794 90.7483 193.933 91.4884 194.01 92.2237L182.614 91.1007L181.459 102.822C180.729 102.762 179.986 102.86 179.26 103.113L180.465 90.8888L170.087 89.8662ZM170.087 89.8662C168.567 93.9882 169.225 98.9705 175.181 103.662C175.457 103.551 175.942 103.624 176.45 103.701C177.065 103.795 177.715 103.893 178.073 103.676C178.459 103.442 178.857 103.254 179.26 103.113L178.982 105.936L165.009 104.56L166.492 89.5119L170.087 89.8662ZM181.459 102.822C182.743 102.927 183.987 103.523 185.026 104.632C185.24 104.861 185.668 104.826 186.153 104.787C186.614 104.749 187.126 104.708 187.558 104.882C191.223 103.923 194.647 98.2344 194.01 92.2237L196.587 92.4776L195.104 107.525L181.131 106.148L181.459 102.822Z" fill="black"/>
<path d="M198.282 75.2803L199.277 75.3784L199.375 74.3832L198.38 74.2851L198.282 75.2803ZM184.309 73.9034L184.407 72.9082L183.412 72.8101L183.314 73.8053L184.309 73.9034ZM196.799 90.3279L196.701 91.3231L197.696 91.4212L197.794 90.426L196.799 90.3279ZM188.568 82.6902L189.191 81.9076L188.444 81.3136L187.816 82.0318L188.568 82.6902ZM188.994 75.4503L189.987 75.3342L189.893 74.5341L189.092 74.4551L188.994 75.4503ZM166.704 87.3622L165.708 87.2642L165.61 88.2593L166.606 88.3574L166.704 87.3622ZM168.186 72.3146L168.285 71.3194L167.289 71.2214L167.191 72.2165L168.186 72.3146ZM182.159 73.6915L183.154 73.7896L183.252 72.7944L182.257 72.6964L182.159 73.6915ZM179.222 80.999L178.227 80.9009L178.129 81.8961L179.124 81.9942L179.222 80.999ZM177.356 81.5853L178.183 81.0226L177.673 80.2734L176.877 80.7075L177.356 81.5853ZM180.676 88.7392L180.578 89.7344L181.573 89.8324L181.672 88.8372L180.676 88.7392ZM182.826 88.951L181.831 88.8529L181.733 89.8481L182.728 89.9462L182.826 88.951ZM182.614 91.1007L182.712 90.1055L181.717 90.0074L181.619 91.0026L182.614 91.1007ZM180.465 90.8888L181.46 90.9869L181.558 89.9917L180.563 89.8936L180.465 90.8888ZM175.181 103.662L174.562 104.448L175.017 104.806L175.554 104.59L175.181 103.662ZM176.45 103.701L176.3 104.69L176.3 104.69L176.45 103.701ZM178.073 103.676L177.554 102.821L178.073 103.676ZM178.982 105.936L178.884 106.932L179.879 107.03L179.977 106.035L178.982 105.936ZM165.009 104.56L164.014 104.461L163.916 105.457L164.911 105.555L165.009 104.56ZM166.492 89.5119L166.59 88.5167L165.595 88.4186L165.497 89.4138L166.492 89.5119ZM185.026 104.632L184.296 105.316L184.296 105.316L185.026 104.632ZM186.153 104.787L186.073 103.79L186.153 104.787ZM187.558 104.882L187.183 105.809L187.49 105.933L187.811 105.849L187.558 104.882ZM196.587 92.4776L197.582 92.5757L197.68 91.5805L196.685 91.4824L196.587 92.4776ZM195.104 107.525L195.006 108.52L196.001 108.618L196.099 107.623L195.104 107.525ZM181.131 106.148L180.136 106.05L180.038 107.045L181.033 107.143L181.131 106.148ZM198.38 74.2851L184.407 72.9082L184.211 74.8986L198.184 76.2755L198.38 74.2851ZM197.794 90.426L199.277 75.3784L197.287 75.1823L195.804 90.2299L197.794 90.426ZM193.489 91.0067L196.701 91.3231L196.897 89.3328L193.686 89.0163L193.489 91.0067ZM187.946 83.4728C190.504 85.5077 191.954 87.8878 192.625 90.2812L194.55 89.7418C193.765 86.9372 192.073 84.2003 189.191 81.9076L187.946 83.4728ZM183.204 85.8381C185.56 85.9016 187.889 84.9851 189.321 83.3486L187.816 82.0318C186.831 83.1578 185.107 83.8887 183.258 83.8389L183.204 85.8381ZM182.615 80.8944L182.236 84.7404L184.227 84.9366L184.606 81.0905L182.615 80.8944ZM183.738 81.9843C185.615 81.743 187.298 81.1513 188.466 80.0385C189.679 78.8835 190.215 77.2842 189.987 75.3342L188 75.5664C188.166 76.986 187.78 77.9303 187.087 78.5903C186.35 79.2924 185.144 79.787 183.483 80.0006L183.738 81.9843ZM189.092 74.4551C187.006 74.2496 185.29 74.3756 183.881 74.7389L184.381 76.6756C185.518 76.3823 186.992 76.2579 188.896 76.4455L189.092 74.4551ZM183.314 73.8053L183.136 75.6092L185.126 75.8053L185.304 74.0015L183.314 73.8053ZM183.881 74.7389C182.873 74.9991 182.025 75.38 181.318 75.8426L182.412 77.5166C182.925 77.1811 183.569 76.8849 184.381 76.6756L183.881 74.7389ZM183.136 75.6092L182.615 80.8944L184.606 81.0905L185.126 75.8053L183.136 75.6092ZM181.423 82.1175C182.23 82.1211 183.005 82.0784 183.738 81.9843L183.483 80.0006C182.85 80.0819 182.164 80.1208 181.432 80.1175L181.423 82.1175ZM180.87 76.5815L180.432 81.0194L182.423 81.2156L182.86 76.7777L180.87 76.5815ZM171.164 86.797L166.802 86.3671L166.606 88.3574L170.968 88.7873L171.164 86.797ZM167.699 87.4603L169.182 72.4127L167.191 72.2165L165.708 87.2642L167.699 87.4603ZM168.088 73.3098L182.061 74.6867L182.257 72.6964L168.285 71.3194L168.088 73.3098ZM181.164 73.5935L180.87 76.5815L182.86 76.7777L183.154 73.7896L181.164 73.5935ZM181.318 75.8426C178.995 77.361 178.352 79.6316 178.227 80.9009L180.217 81.097C180.306 80.1992 180.764 78.5943 182.412 77.5166L181.318 75.8426ZM179.124 81.9942C179.914 82.072 180.683 82.1142 181.423 82.1175L181.432 80.1175C180.761 80.1145 180.055 80.0762 179.32 80.0038L179.124 81.9942ZM180.432 81.0194L180.102 84.3672L182.093 84.5634L182.423 81.2156L180.432 81.0194ZM181.414 83.5167C180.211 83.1155 179.068 82.3225 178.183 81.0226L176.529 82.1481C177.666 83.8175 179.172 84.877 180.781 85.4139L181.414 83.5167ZM176.877 80.7075C174.582 81.9598 171.92 84.3113 170.2 87.2922L171.932 88.292C173.455 85.6529 175.837 83.5529 177.835 82.4632L176.877 80.7075ZM171.026 90.2122C171.27 89.5506 171.576 88.9085 171.932 88.292L170.2 87.2922C169.793 87.9979 169.436 88.7426 169.149 89.5202L171.026 90.2122ZM170.968 88.7873L180.578 89.7344L180.774 87.744L171.164 86.797L170.968 88.7873ZM181.672 88.8372L182.093 84.5634L180.102 84.3672L179.681 88.6411L181.672 88.8372ZM180.781 85.4139C181.579 85.6803 182.398 85.8164 183.204 85.8381L183.258 83.8389C182.64 83.8222 182.017 83.7179 181.414 83.5167L180.781 85.4139ZM182.236 84.7404L181.831 88.8529L183.821 89.0491L184.227 84.9366L182.236 84.7404ZM182.728 89.9462L193.489 91.0067L193.686 89.0163L182.924 87.9558L182.728 89.9462ZM192.625 90.2812C192.815 90.9625 192.944 91.6475 193.016 92.329L195.005 92.1184C194.921 91.3293 194.772 90.5342 194.55 89.7418L192.625 90.2812ZM194.108 91.2285L182.712 90.1055L182.516 92.0959L193.912 93.2189L194.108 91.2285ZM181.619 91.0026L180.464 102.724L182.454 102.92L183.609 91.1987L181.619 91.0026ZM181.541 101.825C180.665 101.753 179.782 101.873 178.931 102.169L179.589 104.058C180.19 103.848 180.793 103.77 181.377 103.818L181.541 101.825ZM180.255 103.211L181.46 90.9869L179.469 90.7908L178.265 103.015L180.255 103.211ZM180.563 89.8936L170.185 88.871L169.989 90.8614L180.366 91.884L180.563 89.8936ZM175.799 102.877C172.943 100.626 171.433 98.368 170.787 96.2577C170.142 94.1515 170.329 92.1016 171.026 90.2122L169.149 89.5202C168.326 91.7528 168.082 94.2551 168.875 96.8434C169.666 99.4276 171.463 102.006 174.562 104.448L175.799 102.877ZM176.6 102.713C176.357 102.676 176.063 102.631 175.792 102.613C175.548 102.598 175.166 102.59 174.807 102.734L175.554 104.59C175.499 104.612 175.475 104.61 175.505 104.607C175.533 104.605 175.584 104.604 175.664 104.609C175.832 104.62 176.034 104.65 176.3 104.69L176.6 102.713ZM177.554 102.821C177.606 102.79 177.63 102.792 177.593 102.798C177.557 102.804 177.492 102.809 177.39 102.806C177.177 102.799 176.922 102.762 176.6 102.713L176.3 104.69C176.593 104.735 176.971 104.793 177.326 104.805C177.652 104.815 178.153 104.797 178.591 104.531L177.554 102.821ZM178.931 102.169C178.459 102.333 177.998 102.552 177.554 102.821L178.591 104.531C178.921 104.331 179.255 104.174 179.589 104.058L178.931 102.169ZM179.977 106.035L180.255 103.211L178.265 103.015L177.986 105.838L179.977 106.035ZM164.911 105.555L178.884 106.932L179.08 104.941L165.107 103.564L164.911 105.555ZM165.497 89.4138L164.014 104.461L166.004 104.658L167.487 89.61L165.497 89.4138ZM170.185 88.871L166.59 88.5167L166.394 90.5071L169.989 90.8614L170.185 88.871ZM185.756 103.949C184.561 102.672 183.091 101.952 181.541 101.825L181.377 103.818C182.395 103.902 183.413 104.373 184.296 105.316L185.756 103.949ZM186.073 103.79C185.947 103.8 185.847 103.808 185.756 103.812C185.664 103.817 185.604 103.816 185.564 103.813C185.523 103.81 185.531 103.806 185.566 103.818C185.606 103.833 185.683 103.87 185.756 103.949L184.296 105.316C184.658 105.703 185.127 105.785 185.411 105.807C185.701 105.829 186.015 105.801 186.234 105.783L186.073 103.79ZM187.932 103.955C187.241 103.675 186.476 103.757 186.073 103.79L186.234 105.783C186.752 105.741 187.012 105.74 187.183 105.809L187.932 103.955ZM193.016 92.329C193.312 95.1203 192.663 97.8445 191.517 99.9733C190.355 102.132 188.769 103.532 187.305 103.914L187.811 105.849C190.013 105.274 191.971 103.35 193.278 100.921C194.601 98.4634 195.346 95.3377 195.005 92.1184L193.016 92.329ZM196.685 91.4824L194.108 91.2285L193.912 93.2189L196.489 93.4728L196.685 91.4824ZM196.099 107.623L197.582 92.5757L195.592 92.3795L194.109 107.427L196.099 107.623ZM181.033 107.143L195.006 108.52L195.202 106.53L181.229 105.153L181.033 107.143ZM180.464 102.724L180.136 106.05L182.127 106.246L182.454 102.92L180.464 102.724Z" fill="black" mask="url(#path-38-inside-1_1_22)"/>
<g filter="url(#filter0_d_1_22)">
<path d="M642.625 485.763C642.413 479.166 635.332 478.725 631.629 479.376L710.126 368.817C718.293 366.749 723.131 368.664 724.212 370.317L642.625 485.763Z" fill="#FEB513" stroke="#FEB513"/>
<path d="M662.938 499.238L663.458 501.372L664.726 499.579L745.365 385.484L745.792 384.881L745.341 384.296C744.606 383.342 743.912 382.396 743.233 381.471C741.386 378.954 739.653 376.592 737.527 374.659C734.538 371.941 730.759 370.027 724.721 369.257L724.123 369.181L723.776 369.675L642.64 485.437L640.952 487.845L643.758 486.966C646.44 486.125 650.45 485.905 654.162 487.523C657.821 489.117 661.306 492.546 662.938 499.238Z" fill="#E38902" stroke="#E38902" stroke-width="2"/>
<path d="M750.23 397.493L673.149 507.944C672.553 504.53 671.029 502.33 669.262 501.001C667.723 499.844 666.022 499.364 664.648 499.301L744.684 385.582C746.791 386.985 748.14 389.201 748.984 391.465C749.843 393.771 750.159 396.076 750.23 397.493Z" fill="#BB6904" stroke="#BB6904"/>
<path d="M671.939 506.781C672.224 507.619 672.352 508.37 672.344 508.95L644.354 521.62C636.047 515.474 635.897 515.363 628.465 509.831L631.019 480.385C635.267 479.338 638.057 479.999 639.738 481.327C641.468 482.693 642.138 484.854 641.946 486.934L641.858 487.888L642.691 487.414C647.508 484.675 652.327 485.702 656.159 488.429C660.012 491.17 662.801 495.59 663.484 499.471L663.55 499.85L663.933 499.883C666.756 500.128 668.924 501.79 670.363 503.767C671.081 504.754 671.61 505.809 671.939 506.781Z" fill="#F8E7D8" stroke="#F8E7D8"/>
<path d="M643.654 521.875L627.978 526.838L628.426 510.68C638.124 512.854 642.489 518.803 643.654 521.875Z" fill="#DD0F0F"/>
<path d="M643.654 521.875L627.978 526.838L628.426 510.68C638.124 512.854 642.489 518.803 643.654 521.875Z" fill="url(#paint11_linear_1_22)" fill-opacity="0.35"/>
<path d="M643.654 521.875L627.978 526.838L628.426 510.68C638.124 512.854 642.489 518.803 643.654 521.875Z" stroke="#920808"/>
<path d="M739.269 326.605L728.702 342.865C748.036 338.281 765.532 356.924 769.826 372.361L780.642 355.267C780.717 335.479 758.397 320.843 739.269 326.605Z" fill="#FF97DC" style="mix-blend-mode:lighten"/>
<path d="M739.269 326.605L728.702 342.865C748.036 338.281 765.532 356.924 769.826 372.361L780.642 355.267C780.717 335.479 758.397 320.843 739.269 326.605Z" fill="url(#paint12_linear_1_22)" fill-opacity="0.2"/>
<path d="M730.374 340.494L708.395 370.419C731.096 368.688 744.585 390.439 748.299 401.559L770.881 370.367C762.006 341.787 740.179 338.543 730.374 340.494Z" fill="#C6C6C6"/>
<path d="M730.374 340.494L708.395 370.419C731.096 368.688 744.585 390.439 748.299 401.559L770.881 370.367C762.006 341.787 740.179 338.543 730.374 340.494Z" fill="url(#paint13_radial_1_22)" fill-opacity="0.7"/>
<rect x="840.466" y="188.932" width="241" height="240" rx="20" transform="rotate(5.62799 840.466 188.932)" fill="#1D1919"/>
<path d="M841.799 216.194C842.882 205.202 852.671 197.169 863.664 198.252L1062.7 217.866C1073.69 218.949 1081.73 228.738 1080.64 239.731L1060.56 443.563C1059.73 451.942 1052.27 458.066 1043.89 457.24L1041.26 456.981C1038.24 456.683 1035.24 457.799 1033.15 460.005L1027.31 466.159C1025.55 468.011 1022.5 467.596 1021.3 465.344C1019.56 462.078 1014.64 463.053 1014.28 466.736L1011.05 499.463C1010.31 506.99 1003.61 512.491 996.079 511.749L995.167 511.659C987.136 510.868 981.267 503.716 982.059 495.685L985.343 462.354C986.018 455.509 981.016 449.414 974.172 448.74C971.751 448.501 969.312 448.977 967.158 450.109L959.85 453.949C953.032 457.532 944.764 456.881 938.59 452.277L934.684 449.365C931.767 447.189 928.311 445.85 924.689 445.494L899.294 442.991L895.8 442.647C890.005 442.076 884.844 446.31 884.273 452.105L883.929 455.605C883.548 459.467 886.37 462.906 890.233 463.287C894.095 463.668 896.917 467.107 896.537 470.969L895.264 483.887C894.883 487.749 891.444 490.572 887.581 490.191C883.719 489.81 880.897 486.371 881.277 482.509L881.357 481.7C881.782 477.391 878.633 473.553 874.324 473.129L870.829 472.784C865.185 472.228 861.059 467.201 861.616 461.556L862.199 455.635C863.078 446.72 856.563 438.78 847.648 437.902L840.121 437.16C829.128 436.077 821.095 426.287 822.179 415.295L822.869 408.294L841.799 216.194Z" fill="url(#paint14_linear_1_22)" fill-opacity="0.5" style="mix-blend-mode:color-dodge"/>
<path d="M838.505 208.836C839.588 197.843 849.377 189.81 860.37 190.893L1060.4 210.605C1071.39 211.689 1079.43 221.478 1078.34 232.47L1058.26 436.227C1057.43 444.648 1049.93 450.802 1041.51 449.972L1038.88 449.713C1035.85 449.414 1032.84 450.53 1030.74 452.738L1024.88 458.889C1023.12 460.742 1020.06 460.326 1018.85 458.07C1017.09 454.795 1012.16 455.779 1011.79 459.476L1008.57 492.149C1007.83 499.696 1001.11 505.211 993.563 504.467L992.626 504.375C984.562 503.58 978.668 496.398 979.463 488.334L982.736 455.125C983.413 448.247 978.387 442.121 971.509 441.443C969.083 441.204 966.641 441.679 964.481 442.808L957.06 446.69C950.26 450.246 942.025 449.598 935.864 445.022L931.839 442.031C928.927 439.868 925.482 438.538 921.873 438.182L896.329 435.665L892.777 435.315C886.982 434.744 881.822 438.979 881.25 444.773L880.908 448.244C880.526 452.122 883.36 455.576 887.239 455.958C891.117 456.34 893.951 459.794 893.569 463.672L892.302 476.532C891.92 480.41 888.466 483.244 884.588 482.862C880.709 482.48 877.875 479.026 878.257 475.148L878.334 474.368C878.759 470.059 875.61 466.222 871.301 465.797L867.759 465.448C862.091 464.889 857.949 459.841 858.507 454.173L859.087 448.294C859.965 439.379 853.45 431.439 844.535 430.561L836.827 429.801C825.834 428.718 817.801 418.929 818.884 407.936L819.574 400.936L838.505 208.836Z" fill="url(#paint15_linear_1_22)"/>
<path d="M838.505 208.836C839.588 197.843 849.377 189.81 860.37 190.893L1060.4 210.605C1071.39 211.689 1079.43 221.478 1078.34 232.47L1058.26 436.227C1057.43 444.648 1049.93 450.802 1041.51 449.972L1038.88 449.713C1035.85 449.414 1032.84 450.53 1030.74 452.738L1024.88 458.889C1023.12 460.742 1020.06 460.326 1018.85 458.07C1017.09 454.795 1012.16 455.779 1011.79 459.476L1008.57 492.149C1007.83 499.696 1001.11 505.211 993.563 504.467L992.626 504.375C984.562 503.58 978.668 496.398 979.463 488.334L982.736 455.125C983.413 448.247 978.387 442.121 971.509 441.443C969.083 441.204 966.641 441.679 964.481 442.808L957.06 446.69C950.26 450.246 942.025 449.598 935.864 445.022L931.839 442.031C928.927 439.868 925.482 438.538 921.873 438.182L896.329 435.665L892.777 435.315C886.982 434.744 881.822 438.979 881.25 444.773L880.908 448.244C880.526 452.122 883.36 455.576 887.239 455.958C891.117 456.34 893.951 459.794 893.569 463.672L892.302 476.532C891.92 480.41 888.466 483.244 884.588 482.862C880.709 482.48 877.875 479.026 878.257 475.148L878.334 474.368C878.759 470.059 875.61 466.222 871.301 465.797L867.759 465.448C862.091 464.889 857.949 459.841 858.507 454.173L859.087 448.294C859.965 439.379 853.45 431.439 844.535 430.561L836.827 429.801C825.834 428.718 817.801 418.929 818.884 407.936L819.574 400.936L838.505 208.836Z" fill="url(#paint16_linear_1_22)" fill-opacity="0.5" style="mix-blend-mode:color-dodge"/>
</g>
<rect x="62" y="656" width="173" height="173" rx="12" fill="#222863" fill-opacity="0.7" stroke="#589BFF" stroke-width="2"/>
<path d="M88.5508 769V696.273H119.943C125.341 696.273 130.064 697.338 134.112 699.469C138.16 701.599 141.309 704.594 143.558 708.453C145.807 712.312 146.931 716.822 146.931 721.983C146.931 727.191 145.771 731.701 143.451 735.513C141.155 739.324 137.923 742.26 133.757 744.32C129.614 746.379 124.772 747.409 119.233 747.409H100.483V732.068H115.255C117.575 732.068 119.552 731.666 121.186 730.861C122.843 730.032 124.109 728.86 124.985 727.345C125.885 725.83 126.335 724.043 126.335 721.983C126.335 719.9 125.885 718.124 124.985 716.656C124.109 715.165 122.843 714.028 121.186 713.247C119.552 712.442 117.575 712.04 115.255 712.04H108.295V769H88.5508ZM174.062 738.318V769H154.46V696.273H173.352V724.824H173.92C175.151 721.344 177.199 718.633 180.064 716.692C182.928 714.727 186.373 713.744 190.397 713.744C194.256 713.744 197.606 714.62 200.447 716.372C203.312 718.124 205.525 720.539 207.088 723.616C208.674 726.694 209.455 730.222 209.431 734.199V769H189.829V738.318C189.853 735.619 189.178 733.5 187.805 731.962C186.456 730.423 184.526 729.653 182.017 729.653C180.431 729.653 179.034 730.009 177.826 730.719C176.643 731.405 175.719 732.4 175.056 733.702C174.417 734.98 174.086 736.519 174.062 738.318Z" fill="#589BFF"/>
<path d="M88.5508 769H86.5508V771H88.5508V769ZM88.5508 696.273V694.273H86.5508V696.273H88.5508ZM134.112 699.469L133.18 701.239L134.112 699.469ZM143.558 708.453L145.286 707.446L143.558 708.453ZM143.451 735.513L141.743 734.473L141.738 734.481L143.451 735.513ZM133.757 744.32L132.87 742.527L132.866 742.529L133.757 744.32ZM100.483 747.409H98.4826V749.409H100.483V747.409ZM100.483 732.068V730.068H98.4826V732.068H100.483ZM121.186 730.861L122.07 732.655L122.08 732.65L121.186 730.861ZM124.985 727.345L123.266 726.324L123.26 726.334L123.254 726.344L124.985 727.345ZM124.985 716.656L123.261 717.669L123.27 717.685L123.28 717.701L124.985 716.656ZM121.186 713.247L120.302 715.041L120.317 715.049L120.333 715.056L121.186 713.247ZM108.295 712.04V710.04H106.295V712.04H108.295ZM108.295 769V771H110.295V769H108.295ZM90.5508 769V696.273H86.5508V769H90.5508ZM88.5508 698.273H119.943V694.273H88.5508V698.273ZM119.943 698.273C125.074 698.273 129.467 699.284 133.18 701.239L135.043 697.699C130.66 695.392 125.607 694.273 119.943 694.273V698.273ZM133.18 701.239C136.905 703.199 139.774 705.933 141.83 709.46L145.286 707.446C142.843 703.255 139.415 700 135.043 697.699L133.18 701.239ZM141.83 709.46C143.875 712.969 144.931 717.12 144.931 721.983H148.931C148.931 716.524 147.739 711.655 145.286 707.446L141.83 709.46ZM144.931 721.983C144.931 726.887 143.842 731.024 141.743 734.473L145.16 736.553C147.7 732.379 148.931 727.496 148.931 721.983H144.931ZM141.738 734.481C139.648 737.95 136.711 740.628 132.87 742.527L134.643 746.113C139.136 743.891 142.662 740.699 145.164 736.545L141.738 734.481ZM132.866 742.529C129.049 744.426 124.524 745.409 119.233 745.409V749.409C125.021 749.409 130.178 748.332 134.647 746.11L132.866 742.529ZM119.233 745.409H100.483V749.409H119.233V745.409ZM102.483 747.409V732.068H98.4826V747.409H102.483ZM100.483 734.068H115.255V730.068H100.483V734.068ZM115.255 734.068C117.8 734.068 120.096 733.627 122.07 732.655L120.302 729.067C119.008 729.704 117.35 730.068 115.255 730.068V734.068ZM122.08 732.65C124.066 731.657 125.633 730.221 126.717 728.346L123.254 726.344C122.586 727.5 121.62 728.408 120.291 729.072L122.08 732.65ZM126.705 728.366C127.817 726.493 128.335 724.341 128.335 721.983H124.335C124.335 723.745 123.953 725.167 123.266 726.324L126.705 728.366ZM128.335 721.983C128.335 719.609 127.82 717.454 126.691 715.611L123.28 717.701C123.95 718.794 124.335 720.191 124.335 721.983H128.335ZM126.71 715.643C125.618 713.784 124.037 712.38 122.039 711.438L120.333 715.056C121.649 715.677 122.601 716.546 123.261 717.669L126.71 715.643ZM122.07 711.453C120.096 710.481 117.8 710.04 115.255 710.04V714.04C117.35 714.04 119.008 714.404 120.302 715.041L122.07 711.453ZM115.255 710.04H108.295V714.04H115.255V710.04ZM106.295 712.04V769H110.295V712.04H106.295ZM108.295 767H88.5508V771H108.295V767ZM174.062 738.318L172.062 738.292L172.062 738.305V738.318H174.062ZM174.062 769V771H176.062V769H174.062ZM154.46 769H152.46V771H154.46V769ZM154.46 696.273V694.273H152.46V696.273H154.46ZM173.352 696.273H175.352V694.273H173.352V696.273ZM173.352 724.824H171.352V726.824H173.352V724.824ZM173.92 724.824V726.824H175.334L175.806 725.491L173.92 724.824ZM180.064 716.692L181.186 718.347L181.195 718.341L180.064 716.692ZM200.447 716.372L199.397 718.075L199.404 718.078L200.447 716.372ZM207.088 723.616L205.304 724.522L205.31 724.533L207.088 723.616ZM209.431 734.199L207.431 734.187V734.199H209.431ZM209.431 769V771H211.431V769H209.431ZM189.829 769H187.829V771H189.829V769ZM189.829 738.318L187.829 738.301L187.829 738.309V738.318H189.829ZM187.805 731.962L186.301 733.28L186.307 733.287L186.313 733.293L187.805 731.962ZM177.826 730.719L178.83 732.449L178.84 732.443L177.826 730.719ZM175.056 733.702L173.274 732.794L173.271 732.801L173.268 732.807L175.056 733.702ZM172.062 738.318V769H176.062V738.318H172.062ZM174.062 767H154.46V771H174.062V767ZM156.46 769V696.273H152.46V769H156.46ZM154.46 698.273H173.352V694.273H154.46V698.273ZM171.352 696.273V724.824H175.352V696.273H171.352ZM173.352 726.824H173.92V722.824H173.352V726.824ZM175.806 725.491C176.904 722.385 178.699 720.033 181.186 718.347L178.942 715.036C175.699 717.233 173.398 720.303 172.035 724.157L175.806 725.491ZM181.195 718.341C183.676 716.639 186.711 715.744 190.397 715.744V711.744C186.035 711.744 182.18 712.814 178.932 715.042L181.195 718.341ZM190.397 715.744C193.944 715.744 196.919 716.546 199.397 718.074L201.497 714.67C198.294 712.695 194.568 711.744 190.397 711.744V715.744ZM199.404 718.078C201.943 719.631 203.905 721.765 205.304 724.522L208.871 722.711C207.146 719.313 204.68 716.617 201.491 714.666L199.404 718.078ZM205.31 724.533C206.728 727.283 207.454 730.484 207.431 734.187L211.431 734.211C211.457 729.959 210.62 726.105 208.865 722.7L205.31 724.533ZM207.431 734.199V769H211.431V734.199H207.431ZM209.431 767H189.829V771H209.431V767ZM191.829 769V738.318H187.829V769H191.829ZM191.829 738.336C191.856 735.297 191.093 732.643 189.297 730.63L186.313 733.293C187.263 734.358 187.85 735.942 187.829 738.301L191.829 738.336ZM189.309 730.643C187.495 728.575 184.961 727.653 182.017 727.653V731.653C184.092 731.653 185.416 732.271 186.301 733.28L189.309 730.643ZM182.017 727.653C180.122 727.653 178.366 728.081 176.812 728.995L178.84 732.443C179.701 731.936 180.739 731.653 182.017 731.653V727.653ZM176.823 728.989C175.283 729.882 174.1 731.173 173.274 732.794L176.839 734.609C177.339 733.626 178.002 732.929 178.83 732.449L176.823 728.989ZM173.268 732.807C172.463 734.416 172.089 736.267 172.062 738.292L176.062 738.344C176.083 736.771 176.371 735.544 176.845 734.596L173.268 732.807Z" fill="#589BFF"/>
<path d="M220.169 683.545V709H213.259V689.909H213.109L207.541 693.24V687.374L213.805 683.545H220.169Z" fill="#589BFF"/>
<path d="M220.169 683.545H222.169V681.545H220.169V683.545ZM220.169 709V711H222.169V709H220.169ZM213.259 709H211.259V711H213.259V709ZM213.259 689.909H215.259V687.909H213.259V689.909ZM213.109 689.909V687.909H212.557L212.083 688.193L213.109 689.909ZM207.541 693.24H205.541V696.767L208.568 694.956L207.541 693.24ZM207.541 687.374L206.498 685.667L205.541 686.252V687.374H207.541ZM213.805 683.545V681.545H213.243L212.762 681.839L213.805 683.545ZM218.169 683.545V709H222.169V683.545H218.169ZM220.169 707H213.259V711H220.169V707ZM215.259 709V689.909H211.259V709H215.259ZM213.259 687.909H213.109V691.909H213.259V687.909ZM212.083 688.193L206.514 691.524L208.568 694.956L214.136 691.625L212.083 688.193ZM209.541 693.24V687.374H205.541V693.24H209.541ZM208.584 689.08L214.848 685.252L212.762 681.839L206.498 685.667L208.584 689.08ZM213.805 685.545H220.169V681.545H213.805V685.545Z" fill="#589BFF"/>
<rect x="150" y="744" width="173" height="173" rx="12" fill="#FF7E30" fill-opacity="0.5" stroke="#FF7E30" stroke-width="2"/>
<path d="M203.74 866H182.433L206.439 793.273H233.427L257.433 866H236.126L220.217 813.301H219.649L203.74 866ZM199.762 837.307H239.819V852.08H199.762V837.307ZM264.722 866V811.455H284.324V866H264.722ZM274.523 805.773C271.871 805.773 269.598 804.897 267.705 803.145C265.811 801.393 264.864 799.286 264.864 796.824C264.864 794.362 265.811 792.255 267.705 790.503C269.598 788.751 271.871 787.875 274.523 787.875C277.198 787.875 279.471 788.751 281.341 790.503C283.235 792.255 284.182 794.362 284.182 796.824C284.182 799.286 283.235 801.393 281.341 803.145C279.471 804.897 277.198 805.773 274.523 805.773Z" fill="#FF7E30"/>
<path d="M203.74 866V868H205.225L205.654 866.578L203.74 866ZM182.433 866L180.534 865.373L179.667 868H182.433V866ZM206.439 793.273V791.273H204.993L204.539 792.646L206.439 793.273ZM233.427 793.273L235.326 792.646L234.873 791.273H233.427V793.273ZM257.433 866V868H260.199L259.332 865.373L257.433 866ZM236.126 866L234.211 866.578L234.641 868H236.126V866ZM220.217 813.301L222.132 812.723L221.702 811.301H220.217V813.301ZM219.649 813.301V811.301H218.163L217.734 812.723L219.649 813.301ZM199.762 837.307V835.307H197.762V837.307H199.762ZM239.819 837.307H241.819V835.307H239.819V837.307ZM239.819 852.08V854.08H241.819V852.08H239.819ZM199.762 852.08H197.762V854.08H199.762V852.08ZM203.74 864H182.433V868H203.74V864ZM184.332 866.627L208.338 793.9L204.539 792.646L180.534 865.373L184.332 866.627ZM206.439 795.273H233.427V791.273H206.439V795.273ZM231.528 793.9L255.534 866.627L259.332 865.373L235.326 792.646L231.528 793.9ZM257.433 864H236.126V868H257.433V864ZM238.041 865.422L222.132 812.723L218.302 813.879L234.211 866.578L238.041 865.422ZM220.217 811.301H219.649V815.301H220.217V811.301ZM217.734 812.723L201.825 865.422L205.654 866.578L221.563 813.879L217.734 812.723ZM199.762 839.307H239.819V835.307H199.762V839.307ZM237.819 837.307V852.08H241.819V837.307H237.819ZM239.819 850.08H199.762V854.08H239.819V850.08ZM201.762 852.08V837.307H197.762V852.08H201.762ZM264.722 866H262.722V868H264.722V866ZM264.722 811.455V809.455H262.722V811.455H264.722ZM284.324 811.455H286.324V809.455H284.324V811.455ZM284.324 866V868H286.324V866H284.324ZM267.705 803.145L266.346 804.613H266.346L267.705 803.145ZM267.705 790.503L266.346 789.035L266.346 789.035L267.705 790.503ZM281.341 790.503L279.974 791.963L279.983 791.971L281.341 790.503ZM281.341 803.145L279.983 801.677L279.974 801.685L281.341 803.145ZM266.722 866V811.455H262.722V866H266.722ZM264.722 813.455H284.324V809.455H264.722V813.455ZM282.324 811.455V866H286.324V811.455H282.324ZM284.324 864H264.722V868H284.324V864ZM274.523 803.773C272.359 803.773 270.576 803.076 269.063 801.677L266.346 804.613C268.621 806.717 271.383 807.773 274.523 807.773V803.773ZM269.063 801.677C267.556 800.283 266.864 798.699 266.864 796.824H262.864C262.864 799.873 264.065 802.503 266.346 804.613L269.063 801.677ZM266.864 796.824C266.864 794.949 267.556 793.365 269.063 791.971L266.346 789.035C264.065 791.145 262.864 793.775 262.864 796.824H266.864ZM269.063 791.971C270.576 790.571 272.359 789.875 274.523 789.875V785.875C271.383 785.875 268.621 786.931 266.346 789.035L269.063 791.971ZM274.523 789.875C276.715 789.875 278.492 790.574 279.974 791.962L282.708 789.043C280.45 786.928 277.681 785.875 274.523 785.875V789.875ZM279.983 791.971C281.49 793.365 282.182 794.949 282.182 796.824H286.182C286.182 793.775 284.98 791.145 282.699 789.035L279.983 791.971ZM282.182 796.824C282.182 798.699 281.49 800.283 279.983 801.677L282.699 804.613C284.98 802.503 286.182 799.873 286.182 796.824H282.182ZM279.974 801.685C278.492 803.073 276.715 803.773 274.523 803.773V807.773C277.681 807.773 280.45 806.72 282.708 804.605L279.974 801.685Z" fill="#FF7E30"/>
<path d="M294.892 798V793.028L304.387 785.173C305.017 784.651 305.556 784.162 306.003 783.707C306.459 783.243 306.807 782.766 307.047 782.277C307.296 781.788 307.42 781.246 307.42 780.649C307.42 779.995 307.279 779.435 306.997 778.971C306.724 778.507 306.343 778.151 305.854 777.902C305.365 777.645 304.802 777.517 304.164 777.517C303.526 777.517 302.962 777.645 302.473 777.902C301.993 778.159 301.62 778.536 301.355 779.033C301.089 779.531 300.957 780.135 300.957 780.848H294.394C294.394 779.058 294.796 777.517 295.6 776.224C296.404 774.932 297.539 773.938 299.006 773.241C300.472 772.545 302.191 772.197 304.164 772.197C306.202 772.197 307.967 772.525 309.458 773.179C310.958 773.826 312.114 774.737 312.926 775.914C313.746 777.09 314.156 778.47 314.156 780.053C314.156 781.03 313.953 782.004 313.547 782.973C313.141 783.935 312.412 784.999 311.36 786.168C310.308 787.336 308.812 788.728 306.873 790.344L304.487 792.332V792.482H314.43V798H294.892Z" fill="#FF7E30"/>
<path d="M294.892 798H292.892V800H294.892V798ZM294.892 793.028L293.617 791.487L292.892 792.087V793.028H294.892ZM304.387 785.173L305.662 786.714L305.664 786.713L304.387 785.173ZM306.003 783.707L304.576 782.305L304.576 782.305L306.003 783.707ZM307.047 782.277L305.264 781.371L305.258 781.383L305.252 781.395L307.047 782.277ZM306.997 778.971L305.274 779.987L305.281 779.998L305.288 780.009L306.997 778.971ZM305.854 777.902L304.924 779.673L304.935 779.679L304.947 779.685L305.854 777.902ZM302.473 777.902L301.543 776.132L301.53 776.138L302.473 777.902ZM301.355 779.033L299.59 778.092L299.59 778.092L301.355 779.033ZM300.957 780.848V782.848H302.957V780.848H300.957ZM294.394 780.848H292.394V782.848H294.394V780.848ZM295.6 776.224L293.902 775.168L293.902 775.168L295.6 776.224ZM299.006 773.241L299.863 775.048L299.006 773.241ZM309.458 773.179L308.655 775.011L308.667 775.016L309.458 773.179ZM312.926 775.914L311.28 777.05L311.285 777.058L312.926 775.914ZM313.547 782.973L315.39 783.752L315.392 783.746L313.547 782.973ZM311.36 786.168L312.846 787.506L312.846 787.506L311.36 786.168ZM306.873 790.344L308.153 791.88L306.873 790.344ZM304.487 792.332L303.206 790.796L302.487 791.396V792.332H304.487ZM304.487 792.482H302.487V794.482H304.487V792.482ZM314.43 792.482H316.43V790.482H314.43V792.482ZM314.43 798V800H316.43V798H314.43ZM296.892 798V793.028H292.892V798H296.892ZM296.166 794.569L305.662 786.714L303.112 783.632L293.617 791.487L296.166 794.569ZM305.664 786.713C306.332 786.159 306.924 785.624 307.43 785.108L304.576 782.305C304.187 782.701 303.702 783.144 303.111 783.634L305.664 786.713ZM307.43 785.108C308.007 784.52 308.491 783.873 308.842 783.16L305.252 781.395C305.122 781.659 304.91 781.965 304.576 782.305L307.43 785.108ZM308.83 783.184C309.233 782.39 309.42 781.533 309.42 780.649H305.42C305.42 780.959 305.358 781.187 305.264 781.371L308.83 783.184ZM309.42 780.649C309.42 779.704 309.214 778.769 308.707 777.933L305.288 780.009C305.344 780.101 305.42 780.285 305.42 780.649H309.42ZM308.72 777.956C308.25 777.157 307.582 776.538 306.76 776.12L304.947 779.685C305.103 779.764 305.198 779.857 305.274 779.987L308.72 777.956ZM306.784 776.132C305.967 775.702 305.075 775.517 304.164 775.517V779.517C304.528 779.517 304.763 779.589 304.924 779.673L306.784 776.132ZM304.164 775.517C303.252 775.517 302.36 775.702 301.543 776.132L303.403 779.673C303.564 779.589 303.799 779.517 304.164 779.517V775.517ZM301.53 776.138C300.688 776.589 300.035 777.258 299.59 778.092L303.119 779.975C303.205 779.814 303.297 779.73 303.416 779.666L301.53 776.138ZM299.59 778.092C299.135 778.946 298.957 779.892 298.957 780.848H302.957C302.957 780.379 303.044 780.115 303.119 779.975L299.59 778.092ZM300.957 778.848H294.394V782.848H300.957V778.848ZM296.394 780.848C296.394 779.365 296.724 778.204 297.298 777.281L293.902 775.168C292.868 776.83 292.394 778.752 292.394 780.848H296.394ZM297.298 777.281C297.886 776.336 298.719 775.591 299.863 775.048L298.148 771.435C296.359 772.284 294.921 773.528 293.902 775.168L297.298 777.281ZM299.863 775.048C301.01 774.504 302.426 774.197 304.164 774.197V770.197C301.957 770.197 299.934 770.587 298.148 771.435L299.863 775.048ZM304.164 774.197C305.993 774.197 307.472 774.492 308.655 775.011L310.262 771.348C308.462 770.558 306.411 770.197 304.164 770.197V774.197ZM308.667 775.016C309.872 775.535 310.71 776.224 311.28 777.05L314.572 774.778C313.518 773.25 312.044 772.116 310.25 771.343L308.667 775.016ZM311.285 777.058C311.848 777.864 312.156 778.835 312.156 780.053H316.156C316.156 778.105 315.645 776.317 314.567 774.77L311.285 777.058ZM312.156 780.053C312.156 780.746 312.014 781.457 311.703 782.201L315.392 783.746C315.893 782.55 316.156 781.315 316.156 780.053H312.156ZM311.705 782.195C311.418 782.875 310.845 783.751 309.874 784.829L312.846 787.506C313.98 786.247 314.865 784.994 315.39 783.752L311.705 782.195ZM309.874 784.829C308.912 785.897 307.497 787.221 305.593 788.807L308.153 791.88C310.127 790.235 311.704 788.774 312.846 787.506L309.874 784.829ZM305.593 788.807L303.206 790.796L305.767 793.869L308.153 791.88L305.593 788.807ZM302.487 792.332V792.482H306.487V792.332H302.487ZM304.487 794.482H314.43V790.482H304.487V794.482ZM312.43 792.482V798H316.43V792.482H312.43ZM314.43 796H294.892V800H314.43V796Z" fill="#FF7E30"/>
<rect x="236" y="831" width="173" height="173" rx="12" fill="#70134A" fill-opacity="0.7" stroke="#FF97DC" stroke-width="2"/>
<path d="M382.302 885.348C380.296 885.348 378.515 885.004 376.957 884.316C375.408 883.62 374.19 882.663 373.303 881.445C372.416 880.227 371.969 878.827 371.961 877.244H378.921C378.929 877.733 379.078 878.172 379.368 878.562C379.667 878.943 380.073 879.241 380.586 879.457C381.1 879.672 381.689 879.78 382.351 879.78C382.989 879.78 383.553 879.668 384.042 879.444C384.531 879.212 384.912 878.893 385.185 878.487C385.459 878.081 385.591 877.617 385.583 877.095C385.591 876.581 385.434 876.126 385.111 875.728C384.796 875.33 384.352 875.02 383.781 874.796C383.209 874.572 382.55 874.46 381.805 874.46H379.219V869.688H381.805C382.492 869.688 383.097 869.576 383.619 869.352C384.149 869.128 384.56 868.817 384.85 868.42C385.148 868.022 385.293 867.566 385.285 867.053C385.293 866.555 385.173 866.116 384.924 865.735C384.676 865.354 384.328 865.056 383.88 864.84C383.441 864.625 382.931 864.517 382.351 864.517C381.722 864.517 381.158 864.629 380.661 864.853C380.172 865.076 379.787 865.387 379.505 865.785C379.223 866.183 379.078 866.638 379.07 867.152H372.458C372.466 865.594 372.893 864.219 373.738 863.026C374.592 861.832 375.76 860.896 377.243 860.217C378.726 859.537 380.429 859.197 382.351 859.197C384.232 859.197 385.894 859.516 387.335 860.154C388.785 860.792 389.916 861.671 390.729 862.789C391.549 863.9 391.955 865.172 391.947 866.605C391.963 868.03 391.474 869.199 390.48 870.11C389.494 871.022 388.243 871.56 386.726 871.726V871.925C388.781 872.148 390.327 872.778 391.362 873.814C392.398 874.841 392.908 876.134 392.891 877.692C392.899 879.183 392.452 880.505 391.549 881.657C390.654 882.808 389.407 883.712 387.808 884.366C386.217 885.021 384.381 885.348 382.302 885.348Z" fill="#FF97DC"/>
<path d="M376.957 884.316L376.138 886.141L376.149 886.146L376.957 884.316ZM373.303 881.445L374.92 880.268H374.92L373.303 881.445ZM371.961 877.244V875.244H369.95L369.961 877.255L371.961 877.244ZM378.921 877.244L380.921 877.21L380.887 875.244H378.921V877.244ZM379.368 878.562L377.764 879.756L377.779 879.776L377.793 879.794L379.368 878.562ZM380.586 879.457L379.813 881.301H379.813L380.586 879.457ZM384.042 879.444L384.874 881.263L384.887 881.257L384.899 881.251L384.042 879.444ZM385.185 878.487L386.844 879.604L386.844 879.604L385.185 878.487ZM385.583 877.095L383.583 877.063L383.583 877.095L383.583 877.127L385.583 877.095ZM385.111 875.728L383.543 876.969L383.55 876.979L383.558 876.989L385.111 875.728ZM379.219 874.46H377.219V876.46H379.219V874.46ZM379.219 869.688V867.688H377.219V869.688H379.219ZM383.619 869.352L382.842 867.509L382.831 867.514L383.619 869.352ZM384.85 868.42L383.25 867.22L383.242 867.231L383.234 867.241L384.85 868.42ZM385.285 867.053L383.285 867.019L383.284 867.052L383.285 867.085L385.285 867.053ZM384.924 865.735L383.249 866.828L383.249 866.828L384.924 865.735ZM383.88 864.84L382.999 866.636L383.006 866.639L383.013 866.642L383.88 864.84ZM380.661 864.853L379.84 863.029L379.829 863.034L380.661 864.853ZM379.505 865.785L381.137 866.941L381.137 866.941L379.505 865.785ZM379.07 867.152V869.152H381.038L381.07 867.184L379.07 867.152ZM372.458 867.152L370.458 867.141L370.447 869.152H372.458V867.152ZM373.738 863.026L372.111 861.862L372.106 861.87L373.738 863.026ZM377.243 860.217L378.076 862.035L377.243 860.217ZM387.335 860.154L386.526 861.983L386.53 861.985L387.335 860.154ZM390.729 862.789L389.11 863.964L389.115 863.971L389.12 863.978L390.729 862.789ZM391.947 866.605L389.947 866.594L389.946 866.611L389.947 866.628L391.947 866.605ZM390.48 870.11L389.128 868.636L389.122 868.641L390.48 870.11ZM386.726 871.726L386.509 869.738L384.726 869.933V871.726H386.726ZM386.726 871.925H384.726V873.719L386.51 873.913L386.726 871.925ZM391.362 873.814L389.948 875.228L389.954 875.234L391.362 873.814ZM392.891 877.692L390.891 877.67L390.891 877.687L390.891 877.703L392.891 877.692ZM391.549 881.657L389.975 880.422L389.97 880.43L391.549 881.657ZM387.808 884.366L387.05 882.515L387.047 882.517L387.808 884.366ZM382.302 883.348C380.526 883.348 379.027 883.044 377.765 882.487L376.149 886.146C378.003 886.964 380.067 887.348 382.302 887.348V883.348ZM377.777 882.492C376.504 881.92 375.577 881.17 374.92 880.268L371.686 882.622C372.803 884.156 374.312 885.321 376.138 886.141L377.777 882.492ZM374.92 880.268C374.293 879.407 373.967 878.42 373.961 877.234L369.961 877.255C369.971 879.234 370.54 881.047 371.686 882.622L374.92 880.268ZM371.961 879.244H378.921V875.244H371.961V879.244ZM376.921 877.278C376.937 878.183 377.222 879.028 377.764 879.756L380.973 877.367C380.935 877.316 380.922 877.284 380.921 877.21L376.921 877.278ZM377.793 879.794C378.332 880.483 379.032 880.974 379.813 881.301L381.36 877.612C381.113 877.509 381.001 877.403 380.943 877.329L377.793 879.794ZM379.813 881.301C380.614 881.637 381.472 881.78 382.351 881.78V877.78C381.905 877.78 381.587 877.707 381.36 877.612L379.813 881.301ZM382.351 881.78C383.224 881.78 384.08 881.626 384.874 881.263L383.209 877.626C383.026 877.71 382.755 877.78 382.351 877.78V881.78ZM384.899 881.251C385.677 880.882 386.35 880.339 386.844 879.604L383.526 877.37C383.474 877.448 383.384 877.543 383.184 877.637L384.899 881.251ZM386.844 879.604C387.361 878.836 387.597 877.966 387.583 877.063L383.583 877.127C383.585 877.269 383.556 877.326 383.526 877.37L386.844 879.604ZM387.583 877.127C387.599 876.145 387.284 875.231 386.663 874.467L383.558 876.989C383.571 877.005 383.577 877.015 383.579 877.018C383.581 877.022 383.581 877.023 383.581 877.021C383.58 877.02 383.581 877.02 383.581 877.025C383.582 877.03 383.584 877.042 383.583 877.063L387.583 877.127ZM386.679 874.487C386.102 873.758 385.342 873.259 384.51 872.933L383.052 876.658C383.363 876.78 383.49 876.902 383.543 876.969L386.679 874.487ZM384.51 872.933C383.662 872.602 382.748 872.46 381.805 872.46V876.46C382.353 876.46 382.756 876.543 383.052 876.658L384.51 872.933ZM381.805 872.46H379.219V876.46H381.805V872.46ZM381.219 874.46V869.688H377.219V874.46H381.219ZM379.219 871.688H381.805V867.688H379.219V871.688ZM381.805 871.688C382.707 871.688 383.589 871.541 384.407 871.19L382.831 867.514C382.605 867.611 382.277 867.688 381.805 867.688V871.688ZM384.397 871.195C385.204 870.854 385.928 870.336 386.466 869.598L383.234 867.241C383.192 867.299 383.095 867.402 382.842 867.509L384.397 871.195ZM386.45 869.62C387.024 868.854 387.3 867.962 387.284 867.02L383.285 867.085C383.286 867.141 383.278 867.167 383.276 867.173C383.274 867.179 383.27 867.193 383.25 867.22L386.45 869.62ZM387.284 867.086C387.299 866.228 387.086 865.389 386.599 864.643L383.249 866.828C383.259 866.843 383.287 866.883 383.285 867.019L387.284 867.086ZM386.599 864.643C386.133 863.928 385.493 863.397 384.748 863.038L383.013 866.642C383.162 866.714 383.218 866.78 383.249 866.828L386.599 864.643ZM384.761 863.045C384.001 862.672 383.181 862.517 382.351 862.517V866.517C382.682 866.517 382.881 866.578 382.999 866.636L384.761 863.045ZM382.351 862.517C381.482 862.517 380.633 862.672 379.84 863.029L381.482 866.676C381.684 866.586 381.961 866.517 382.351 866.517V862.517ZM379.829 863.034C379.054 863.389 378.379 863.915 377.873 864.629L381.137 866.941C381.195 866.86 381.291 866.764 381.493 866.671L379.829 863.034ZM377.873 864.629C377.345 865.374 377.085 866.226 377.07 867.12L381.07 867.184C381.072 867.051 381.101 866.991 381.137 866.941L377.873 864.629ZM379.07 865.152H372.458V869.152H379.07V865.152ZM374.458 867.163C374.464 865.987 374.778 865.017 375.37 864.182L372.106 861.87C371.008 863.42 370.468 865.201 370.458 867.141L374.458 867.163ZM375.365 864.189C375.993 863.311 376.874 862.586 378.076 862.035L376.41 858.398C374.646 859.206 373.19 860.354 372.111 861.862L375.365 864.189ZM378.076 862.035C379.255 861.495 380.666 861.197 382.351 861.197V857.197C380.192 857.197 378.197 857.58 376.41 858.398L378.076 862.035ZM382.351 861.197C384.006 861.197 385.384 861.478 386.526 861.983L388.145 858.326C386.404 857.555 384.458 857.197 382.351 857.197V861.197ZM386.53 861.985C387.704 862.502 388.535 863.172 389.11 863.964L392.347 861.615C391.298 860.169 389.867 859.083 388.141 858.324L386.53 861.985ZM389.12 863.978C389.673 864.727 389.952 865.574 389.947 866.594L393.947 866.617C393.957 864.769 393.424 863.073 392.337 861.601L389.12 863.978ZM389.947 866.628C389.957 867.521 389.677 868.133 389.128 868.636L391.831 871.584C393.271 870.265 393.969 868.539 393.946 866.582L389.947 866.628ZM389.122 868.641C388.493 869.223 387.66 869.612 386.509 869.738L386.944 873.714C388.825 873.508 390.495 872.82 391.838 871.579L389.122 868.641ZM384.726 871.726V871.925H388.726V871.726H384.726ZM386.51 873.913C388.295 874.107 389.344 874.624 389.948 875.228L392.777 872.4C391.309 870.932 389.268 870.19 386.943 869.936L386.51 873.913ZM389.954 875.234C390.578 875.853 390.903 876.612 390.891 877.67L394.891 877.713C394.913 875.656 394.218 873.83 392.771 872.394L389.954 875.234ZM390.891 877.703C390.897 878.752 390.594 879.633 389.975 880.422L393.123 882.891C394.31 881.377 394.902 879.614 394.891 877.681L390.891 877.703ZM389.97 880.43C389.326 881.258 388.386 881.969 387.05 882.515L388.565 886.217C390.428 885.455 391.982 884.359 393.128 882.884L389.97 880.43ZM387.047 882.517C385.742 883.053 384.174 883.348 382.302 883.348V887.348C384.589 887.348 386.692 886.988 388.569 886.216L387.047 882.517Z" fill="#FF77C9"/>
<path d="M300.154 880.273V953H280.41V880.273H300.154ZM329.54 953.71C325.658 953.71 322.083 952.692 318.816 950.656C315.572 948.62 312.968 945.531 311.003 941.388C309.062 937.245 308.091 932.025 308.091 925.727C308.091 919.146 309.109 913.795 311.145 909.676C313.205 905.557 315.856 902.538 319.1 900.621C322.367 898.703 325.8 897.744 329.398 897.744C332.097 897.744 334.464 898.218 336.5 899.165C338.536 900.088 340.241 901.331 341.614 902.893C342.987 904.432 344.029 906.125 344.739 907.972H345.023V880.273H364.625V953H345.165V944.051H344.739C343.981 945.898 342.892 947.555 341.472 949.023C340.075 950.467 338.371 951.615 336.358 952.467C334.37 953.296 332.097 953.71 329.54 953.71ZM336.784 938.653C338.584 938.653 340.123 938.133 341.401 937.091C342.703 936.026 343.697 934.534 344.384 932.616C345.094 930.675 345.449 928.379 345.449 925.727C345.449 923.028 345.094 920.72 344.384 918.803C343.697 916.861 342.703 915.382 341.401 914.364C340.123 913.322 338.584 912.801 336.784 912.801C334.985 912.801 333.446 913.322 332.168 914.364C330.913 915.382 329.943 916.861 329.256 918.803C328.593 920.72 328.262 923.028 328.262 925.727C328.262 928.426 328.593 930.746 329.256 932.688C329.943 934.605 330.913 936.085 332.168 937.126C333.446 938.144 334.985 938.653 336.784 938.653Z" fill="#FF97DC"/>
<path d="M300.154 880.273H302.154V878.273H300.154V880.273ZM300.154 953V955H302.154V953H300.154ZM280.41 953H278.41V955H280.41V953ZM280.41 880.273V878.273H278.41V880.273H280.41ZM298.154 880.273V953H302.154V880.273H298.154ZM300.154 951H280.41V955H300.154V951ZM282.41 953V880.273H278.41V953H282.41ZM280.41 882.273H300.154V878.273H280.41V882.273ZM318.816 950.656L317.752 952.35L317.758 952.354L318.816 950.656ZM311.003 941.388L309.192 942.236L309.196 942.245L311.003 941.388ZM311.145 909.676L309.356 908.782L309.352 908.79L311.145 909.676ZM319.1 900.621L318.087 898.896L318.082 898.899L319.1 900.621ZM336.5 899.165L335.657 900.978L335.666 900.982L335.674 900.986L336.5 899.165ZM341.614 902.893L340.112 904.214L340.117 904.219L340.122 904.225L341.614 902.893ZM344.739 907.972L342.872 908.69L343.365 909.972H344.739V907.972ZM345.023 907.972V909.972H347.023V907.972H345.023ZM345.023 880.273V878.273H343.023V880.273H345.023ZM364.625 880.273H366.625V878.273H364.625V880.273ZM364.625 953V955H366.625V953H364.625ZM345.165 953H343.165V955H345.165V953ZM345.165 944.051H347.165V942.051H345.165V944.051ZM344.739 944.051V942.051H343.398L342.889 943.292L344.739 944.051ZM341.472 949.023L340.035 947.632L340.034 947.632L341.472 949.023ZM336.358 952.467L337.128 954.314L337.138 954.309L336.358 952.467ZM341.401 937.091L342.664 938.641L342.667 938.639L341.401 937.091ZM344.384 932.616L342.506 931.929L342.501 931.942L344.384 932.616ZM344.384 918.803L342.498 919.469L342.503 919.483L342.508 919.497L344.384 918.803ZM341.401 914.364L340.138 915.914L340.153 915.927L340.169 915.939L341.401 914.364ZM332.168 914.364L333.428 915.917L333.431 915.914L332.168 914.364ZM329.256 918.803L327.37 918.136L327.368 918.142L327.366 918.149L329.256 918.803ZM329.256 932.688L327.363 933.334L327.368 933.348L327.373 933.362L329.256 932.688ZM332.168 937.126L330.89 938.665L330.906 938.678L330.922 938.691L332.168 937.126ZM329.54 951.71C326.028 951.71 322.82 950.795 319.873 948.959L317.758 952.354C321.345 954.589 325.287 955.71 329.54 955.71V951.71ZM319.879 948.962C317.017 947.166 314.645 944.398 312.81 940.531L309.196 942.245C311.292 946.663 314.128 950.075 317.752 952.35L319.879 948.962ZM312.814 940.539C311.035 936.742 310.091 931.835 310.091 925.727H306.091C306.091 932.214 307.089 937.748 309.192 942.236L312.814 940.539ZM310.091 925.727C310.091 919.329 311.084 914.313 312.938 910.562L309.352 908.79C307.134 913.278 306.091 918.962 306.091 925.727H310.091ZM312.934 910.571C314.86 906.718 317.273 904.025 320.118 902.342L318.082 898.899C314.44 901.052 311.55 904.395 309.356 908.782L312.934 910.571ZM320.112 902.346C323.089 900.598 326.175 899.744 329.398 899.744V895.744C325.425 895.744 321.645 896.808 318.087 898.896L320.112 902.346ZM329.398 899.744C331.863 899.744 333.933 900.176 335.657 900.978L337.344 897.351C334.996 896.259 332.33 895.744 329.398 895.744V899.744ZM335.674 900.986C337.471 901.801 338.94 902.88 340.112 904.214L343.116 901.573C341.542 899.782 339.601 898.375 337.326 897.343L335.674 900.986ZM340.122 904.225C341.341 905.591 342.252 907.078 342.872 908.69L346.606 907.254C345.805 905.172 344.633 903.273 343.106 901.562L340.122 904.225ZM344.739 909.972H345.023V905.972H344.739V909.972ZM347.023 907.972V880.273H343.023V907.972H347.023ZM345.023 882.273H364.625V878.273H345.023V882.273ZM362.625 880.273V953H366.625V880.273H362.625ZM364.625 951H345.165V955H364.625V951ZM347.165 953V944.051H343.165V953H347.165ZM345.165 942.051H344.739V946.051H345.165V942.051ZM342.889 943.292C342.23 944.898 341.283 946.342 340.035 947.632L342.909 950.414C344.502 948.768 345.733 946.897 346.589 944.81L342.889 943.292ZM340.034 947.632C338.84 948.867 337.365 949.869 335.578 950.626L337.138 954.309C339.376 953.361 341.31 952.067 342.91 950.413L340.034 947.632ZM335.589 950.621C333.885 951.331 331.881 951.71 329.54 951.71V955.71C332.313 955.71 334.854 955.261 337.128 954.313L335.589 950.621ZM336.784 940.653C338.999 940.653 340.996 940.001 342.664 938.641L340.138 935.54C339.249 936.264 338.168 936.653 336.784 936.653V940.653ZM342.667 938.639C344.304 937.299 345.484 935.478 346.267 933.291L342.501 931.942C341.911 933.59 341.102 934.752 340.134 935.543L342.667 938.639ZM346.262 933.304C347.072 931.09 347.449 928.55 347.449 925.727H343.449C343.449 928.207 343.116 930.261 342.506 931.929L346.262 933.304ZM347.449 925.727C347.449 922.863 347.074 920.306 346.259 918.108L342.508 919.497C343.115 921.134 343.449 923.194 343.449 925.727H347.449ZM346.269 918.136C345.487 915.924 344.301 914.092 342.633 912.788L340.169 915.939C341.105 916.671 341.908 917.799 342.498 919.469L346.269 918.136ZM342.664 912.813C340.996 911.454 338.999 910.801 336.784 910.801V914.801C338.168 914.801 339.249 915.19 340.138 915.914L342.664 912.813ZM336.784 910.801C334.57 910.801 332.573 911.454 330.905 912.813L333.431 915.914C334.32 915.19 335.401 914.801 336.784 914.801V910.801ZM330.908 912.811C329.298 914.116 328.147 915.941 327.37 918.136L331.142 919.469C331.739 917.781 332.528 916.647 333.428 915.917L330.908 912.811ZM327.366 918.149C326.611 920.333 326.262 922.875 326.262 925.727H330.262C330.262 923.182 330.576 921.107 331.146 919.456L327.366 918.149ZM326.262 925.727C326.262 928.581 326.611 931.13 327.363 933.334L331.149 932.041C330.575 930.362 330.262 928.272 330.262 925.727H326.262ZM327.373 933.362C328.151 935.533 329.299 937.344 330.89 938.665L333.445 935.588C332.527 934.825 331.735 933.677 331.139 932.013L327.373 933.362ZM330.922 938.691C332.591 940.02 334.581 940.653 336.784 940.653V936.653C335.389 936.653 334.302 936.269 333.414 935.562L330.922 938.691Z" fill="#FF77C9"/>
<path d="M313 634.316C328.093 624.381 363.074 620.208 382.251 683C383.139 651.207 372.769 574.903 324.187 524.034C370.176 525.027 471.531 554.436 509.033 664.123C518.444 588.117 495.571 414.233 334.057 375.684C519.096 326.569 598.874 354.734 627 524.034" stroke="white" stroke-width="30" stroke-linejoin="round"/>
<path d="M313 634.316C328.093 624.381 363.074 620.208 382.251 683C383.139 651.207 372.769 574.903 324.187 524.034C370.176 525.027 471.531 554.436 509.033 664.123C518.444 588.117 495.571 414.233 334.057 375.684C519.096 326.569 598.874 354.734 627 524.034" stroke="url(#paint17_linear_1_22)" stroke-width="30" stroke-linejoin="round"/>
<g filter="url(#filter1_dd_1_22)">
<path d="M926.907 1090.32L852.401 745.888L1159.02 917.292L1094.31 964.909L1138.57 1005.84L1052.73 1069.73L1008.4 1032.48L926.907 1090.32Z" fill="white"/>
<path d="M936.762 1064.93L874.088 775.196L1131.36 919.018L1085.42 952.828L1070.79 963.592L1084.13 975.922L1115.13 1004.59L1053.29 1050.61L1018.05 1020.99L1009.17 1013.53L999.718 1020.24L936.762 1064.93Z" stroke="black" stroke-width="30"/>
</g>
<defs>
<filter id="filter0_d_1_22" x="627.459" y="190.796" width="463.281" height="346.731" filterUnits="userSpaceOnUse" color-interpolation-filters="sRGB">
<feFlood flood-opacity="0" result="BackgroundImageFix"/>
<feColorMatrix in="SourceAlpha" type="matrix" values="0 0 0 0 0 0 0 0 0 0 0 0 0 0 0 0 0 0 127 0" result="hardAlpha"/>
<feOffset dx="6" dy="6"/>
<feGaussianBlur stdDeviation="2"/>
<feComposite in2="hardAlpha" operator="out"/>
<feColorMatrix type="matrix" values="0 0 0 0 0 0 0 0 0 0 0 0 0 0 0 0 0 0 0.25 0"/>
<feBlend mode="normal" in2="BackgroundImageFix" result="effect1_dropShadow_1_22"/>
<feBlend mode="normal" in="SourceGraphic" in2="effect1_dropShadow_1_22" result="shape"/>
</filter>
<filter id="filter1_dd_1_22" x="848.401" y="745.888" width="320.617" height="354.43" filterUnits="userSpaceOnUse" color-interpolation-filters="sRGB">
<feFlood flood-opacity="0" result="BackgroundImageFix"/>
<feColorMatrix in="SourceAlpha" type="matrix" values="0 0 0 0 0 0 0 0 0 0 0 0 0 0 0 0 0 0 127 0" result="hardAlpha"/>
<feOffset dx="6" dy="6"/>
<feGaussianBlur stdDeviation="2"/>
<feComposite in2="hardAlpha" operator="out"/>
<feColorMatrix type="matrix" values="0 0 0 0 0 0 0 0 0 0 0 0 0 0 0 0 0 0 0.25 0"/>
<feBlend mode="normal" in2="BackgroundImageFix" result="effect1_dropShadow_1_22"/>
<feColorMatrix in="SourceAlpha" type="matrix" values="0 0 0 0 0 0 0 0 0 0 0 0 0 0 0 0 0 0 127 0" result="hardAlpha"/>
<feOffset dy="4"/>
<feGaussianBlur stdDeviation="2"/>
<feComposite in2="hardAlpha" operator="out"/>
<feColorMatrix type="matrix" values="0 0 0 0 0 0 0 0 0 0 0 0 0 0 0 0 0 0 0.25 0"/>
<feBlend mode="normal" in2="effect1_dropShadow_1_22" result="effect2_dropShadow_1_22"/>
<feBlend mode="normal" in="SourceGraphic" in2="effect2_dropShadow_1_22" result="shape"/>
</filter>
<linearGradient id="paint0_linear_1_22" x1="223.263" y1="-22.5398" x2="889.63" y2="964.166" gradientUnits="userSpaceOnUse">
<stop stop-color="#707070"/>
<stop offset="0.379664" stop-color="#A79898"/>
<stop offset="0.760809" stop-color="#555555" stop-opacity="0.6"/>
<stop offset="1" stop-color="#555555" stop-opacity="0.23"/>
</linearGradient>
<linearGradient id="paint1_linear_1_22" x1="165.42" y1="209.631" x2="170.76" y2="182.313" gradientUnits="userSpaceOnUse">
<stop/>
<stop offset="0.495644" stop-color="#262626" stop-opacity="0.623311"/>
<stop offset="1" stop-color="#4E4D4D" stop-opacity="0.24"/>
</linearGradient>
<linearGradient id="paint2_linear_1_22" x1="169.391" y1="211.244" x2="175.784" y2="183.021" gradientUnits="userSpaceOnUse">
<stop offset="0.557292" stop-color="white"/>
</linearGradient>
<linearGradient id="paint3_linear_1_22" x1="181.687" y1="128.628" x2="172.636" y2="166.753" gradientUnits="userSpaceOnUse">
<stop offset="0.557292" stop-color="white"/>
</linearGradient>
<linearGradient id="paint4_linear_1_22" x1="340.943" y1="270.159" x2="668.808" y2="654.761" gradientUnits="userSpaceOnUse">
<stop offset="0.145291" stop-color="#707070"/>
<stop offset="0.379664" stop-color="#A79898"/>
<stop offset="0.760809" stop-color="#555555" stop-opacity="0.6"/>
<stop offset="1" stop-color="#555555" stop-opacity="0.23"/>
</linearGradient>
<linearGradient id="paint5_linear_1_22" x1="833.937" y1="517.898" x2="824.887" y2="556.023" gradientUnits="userSpaceOnUse">
<stop/>
<stop offset="0.495644" stop-color="#262626" stop-opacity="0.623311"/>
<stop offset="1" stop-color="#4E4D4D" stop-opacity="0.24"/>
</linearGradient>
<linearGradient id="paint6_linear_1_22" x1="820.343" y1="655.842" x2="811.293" y2="693.967" gradientUnits="userSpaceOnUse">
<stop/>
<stop offset="0.495644" stop-color="#262626" stop-opacity="0.623311"/>
<stop offset="1" stop-color="#4E4D4D" stop-opacity="0.24"/>
</linearGradient>
<linearGradient id="paint7_linear_1_22" x1="813.547" y1="724.814" x2="804.496" y2="762.939" gradientUnits="userSpaceOnUse">
<stop/>
<stop offset="0.495644" stop-color="#262626" stop-opacity="0.623311"/>
<stop offset="1" stop-color="#4E4D4D" stop-opacity="0.24"/>
</linearGradient>
<linearGradient id="paint8_linear_1_22" x1="806.75" y1="793.785" x2="797.7" y2="831.91" gradientUnits="userSpaceOnUse">
<stop/>
<stop offset="0.495644" stop-color="#262626" stop-opacity="0.623311"/>
<stop offset="1" stop-color="#4E4D4D" stop-opacity="0.24"/>
</linearGradient>
<linearGradient id="paint9_linear_1_22" x1="799.953" y1="862.757" x2="790.903" y2="900.882" gradientUnits="userSpaceOnUse">
<stop/>
<stop offset="0.495644" stop-color="#262626" stop-opacity="0.623311"/>
<stop offset="1" stop-color="#4E4D4D" stop-opacity="0.24"/>
</linearGradient>
<linearGradient id="paint10_linear_1_22" x1="826.083" y1="590.46" x2="818.26" y2="624.208" gradientUnits="userSpaceOnUse">
<stop/>
<stop offset="0.495644" stop-color="#262626" stop-opacity="0.623311"/>
<stop offset="1" stop-color="#4E4D4D" stop-opacity="0.24"/>
</linearGradient>
<linearGradient id="paint11_linear_1_22" x1="626.617" y1="523.573" x2="638.146" y2="513.656" gradientUnits="userSpaceOnUse">
<stop offset="0.322579"/>
<stop offset="1" stop-opacity="0"/>
</linearGradient>
<linearGradient id="paint12_linear_1_22" x1="767.902" y1="350.189" x2="745.692" y2="340.668" gradientUnits="userSpaceOnUse">
<stop offset="0.576111"/>
<stop offset="1" stop-opacity="0"/>
</linearGradient>
<radialGradient id="paint13_radial_1_22" cx="0" cy="0" r="1" gradientUnits="userSpaceOnUse" gradientTransform="translate(736.8 357.639) rotate(67.168) scale(41.7917 40.7413)">
<stop offset="0.234375" stop-color="white" stop-opacity="0.74"/>
<stop offset="0.739583" stop-color="#B0A0A0" stop-opacity="0.74"/>
</radialGradient>
<linearGradient id="paint14_linear_1_22" x1="1093.62" y1="593.077" x2="846.884" y2="196.673" gradientUnits="userSpaceOnUse">
<stop/>
<stop offset="1" stop-color="white"/>
</linearGradient>
<linearGradient id="paint15_linear_1_22" x1="840.466" y1="188.932" x2="1044.95" y2="451.205" gradientUnits="userSpaceOnUse">
<stop stop-color="#FF0000"/>
<stop offset="0.21875" stop-color="#FFDB23" stop-opacity="0.77"/>
<stop offset="0.375" stop-color="#058338" stop-opacity="0.994848"/>
<stop offset="0.604167" stop-color="#00A3FF" stop-opacity="0.99"/>
<stop offset="0.776042" stop-color="#4B06FF" stop-opacity="0.99396"/>
<stop offset="1" stop-color="#BD00FF"/>
</linearGradient>
<linearGradient id="paint16_linear_1_22" x1="1080.3" y1="212.567" x2="818.159" y2="424.678" gradientUnits="userSpaceOnUse">
<stop/>
<stop offset="1" stop-color="white"/>
</linearGradient>
<linearGradient id="paint17_linear_1_22" x1="617.828" y1="505.868" x2="337.555" y2="649.639" gradientUnits="userSpaceOnUse">
<stop stop-color="#FF0000"/>
<stop offset="0.21875" stop-color="#FFDB23" stop-opacity="0.77"/>
<stop offset="0.375" stop-color="#058338" stop-opacity="0.58"/>
<stop offset="0.604167" stop-color="#00A3FF" stop-opacity="0.49"/>
<stop offset="0.742213" stop-color="#4B06FF" stop-opacity="0.46"/>
<stop offset="0.881994" stop-color="#BD00FF" stop-opacity="0.13"/>
<stop offset="1" stop-color="#FF0000" stop-opacity="0.08"/>
</linearGradient>
</defs>
</svg>
