<svg width="1200" height="1200" viewBox="0 0 1200 1200" fill="none" xmlns="http://www.w3.org/2000/svg">
<path d="M540.5 1058.5C540.5 1058.5 659.283 1069.81 697.5 1019.5C750.083 950.284 522.729 1066.61 476.5 993C420.349 903.589 706.199 1008.82 744.442 910.408C789.444 794.608 468.832 983.735 429.442 865.908C385.634 734.862 774.442 787.408 774.442 787.408" stroke="white" stroke-width="30" stroke-linecap="round"/>
<path d="M848.612 753.849C590.499 679.249 590.102 679.134 367.5 754.25C171.833 515.333 -54.8 31.1 606 29.5C1266.8 27.9 1038.33 514 850 754.25L848.612 753.849Z" stroke="#DBFF00" stroke-width="30"/>
<path d="M582.723 691C629.839 624.614 753.142 651.273 590.742 596.909C460.822 553.418 590.742 578.614 590.742 553" stroke="white" stroke-width="7" stroke-linecap="round"/>
<mask id="path-4-inside-1_30_4" fill="white">
<path d="M627 524.5C627 545.211 610.211 562 589.5 562C568.789 562 552 545.211 552 524.5C552 503.789 568.789 487 589.5 487C610.211 487 627 503.789 627 524.5ZM577.17 524.5C577.17 531.31 582.69 536.83 589.5 536.83C596.31 536.83 601.83 531.31 601.83 524.5C601.83 517.69 596.31 512.17 589.5 512.17C582.69 512.17 577.17 517.69 577.17 524.5Z"/>
</mask>
<path d="M627 524.5C627 545.211 610.211 562 589.5 562C568.789 562 552 545.211 552 524.5C552 503.789 568.789 487 589.5 487C610.211 487 627 503.789 627 524.5ZM577.17 524.5C577.17 531.31 582.69 536.83 589.5 536.83C596.31 536.83 601.83 531.31 601.83 524.5C601.83 517.69 596.31 512.17 589.5 512.17C582.69 512.17 577.17 517.69 577.17 524.5Z" stroke="#DBFF00" stroke-width="50" mask="url(#path-4-inside-1_30_4)"/>
</svg>
