<svg width="1000" height="1000" viewBox="0 0 1000 1000" fill="none" xmlns="http://www.w3.org/2000/svg">
<rect x="100" y="117" width="800" height="767" rx="100" fill="#D9D9D9"/>
<rect x="100" y="117" width="800" height="767" rx="100" fill="url(#paint0_linear_101_3)"/>
<path d="M376.679 285H349H346V288V719V722H349H376.679H404.358H516.611C548.475 722 575.86 717.179 598.675 707.422L598.685 707.417L598.696 707.413C621.499 697.457 639.102 683.27 651.354 664.806C663.827 646.119 670 623.814 670 598.033V597.436C670 577.88 665.801 560.35 657.331 544.923C648.869 529.311 636.707 516.593 620.914 506.776C608.375 498.982 593.966 493.539 577.73 490.407C588.453 487.323 598.317 482.379 607.302 475.575L607.315 475.566L607.327 475.556C619.769 465.93 629.587 454.14 636.76 440.208C643.945 426.252 647.549 411.545 647.549 396.123V395.526C647.549 373.501 642.081 354.094 631.06 337.421C620.067 320.791 604.759 307.899 585.239 298.726C565.698 289.543 543.001 285 517.226 285H404.358H376.679ZM407.358 338.491H504.617C531.101 338.491 551.059 344.093 564.896 354.881L564.906 354.889L564.916 354.897C578.528 365.324 584.5 380.238 584.5 400.903V401.5C584.5 423.843 574.384 442.78 557.766 454.552L557.759 454.557L557.752 454.562C541.331 466.333 520.065 470.184 487.395 470.184H407.358V338.491ZM407.358 664.5V523.077H503.079C526.445 523.077 545.764 525.843 561.129 531.269L561.14 531.273C576.687 536.693 588.113 544.736 595.672 555.278C603.229 565.816 607.104 579.106 607.104 595.345V595.942C607.104 619.341 594.702 635.472 577.713 648.09C561.218 660.295 545.393 664.5 512.5 664.5H407.358Z" fill="white" stroke="white" stroke-width="6"/>
<defs>
<linearGradient id="paint0_linear_101_3" x1="100" y1="132.34" x2="866.807" y2="916.46" gradientUnits="userSpaceOnUse">
<stop stop-color="#9013FE"/>
<stop offset="1" stop-color="#6A10F3"/>
</linearGradient>
</defs>
</svg>
